<svg width="8" height="11" viewBox="0 0 8 11" fill="none" xmlns="http://www.w3.org/2000/svg">
    <path d="M1 9.5V1L2 0.5L7.5 5.5L2 10.5L1 9.5Z" fill="#70757D" style="transform: matrix(1, 0, 0, 1, 0, 0); "/>
    <path d="M2.10365 1.34597C2.00143 1.26267 1.87554 1.21743 1.74595 1.21743C1.42453 1.21743 1.16397 1.48996 1.16397 1.82614L1.16397 9.17377C1.16397 9.30932 1.20722 9.44098 1.28687 9.5479C1.48442 9.81309 1.85011 9.86057 2.10365 9.65394L6.61167 5.98012C6.64951 5.94928 6.68357 5.91367 6.71305 5.87409C6.9106 5.6089 6.86521 5.22642 6.61167 5.01979L2.10365 1.34597ZM2.81905 0.38564L7.32707 4.05946C8.0877 4.67933 8.22387 5.82678 7.63122 6.62234C7.54276 6.74109 7.4406 6.84794 7.32707 6.94046L2.81905 10.6143C2.05842 11.2342 0.961362 11.0917 0.368706 10.2962C0.129757 9.9754 2.01119e-07 9.5804 2.36668e-07 9.17377L8.79018e-07 1.82614C9.67189e-07 0.81759 0.781689 -1.03067e-06 1.74595 -9.46368e-07C2.13472 -9.12381e-07 2.51238 0.135716 2.81905 0.38564Z"
          fill="white"/>

</svg>